name symmetric_stride_kinematics_IKTD_Minus_4.mot
datacolumns 38
datarows 11
range 1.56593403 1.57697887
endheader
                time	/jointset/ground_pelvis/pelvis_tilt/value	/jointset/ground_pelvis/pelvis_list/value	/jointset/ground_pelvis/pelvis_rotation/value	/jointset/ground_pelvis/pelvis_tx/value	/jointset/ground_pelvis/pelvis_ty/value	/jointset/ground_pelvis/pelvis_tz/value	/jointset/hip_r/hip_flexion_r/value	/jointset/hip_r/hip_adduction_r/value	/jointset/hip_r/hip_rotation_r/value	/jointset/knee_r/knee_angle_r/value	/jointset/ankle_r/ankle_angle_r/value	/jointset/subtalar_r/subtalar_angle_r/value	/jointset/mtp_r/mtp_angle_r/value	/jointset/hip_l/hip_flexion_l/value	/jointset/hip_l/hip_adduction_l/value	/jointset/hip_l/hip_rotation_l/value	/jointset/knee_l/knee_angle_l/value	/jointset/ankle_l/ankle_angle_l/value	/jointset/subtalar_l/subtalar_angle_l/value	/jointset/mtp_l/mtp_angle_l/value	/jointset/back/lumbar_extension/value	/jointset/back/lumbar_bending/value	/jointset/back/lumbar_rotation/value	/jointset/acromial_r/arm_flex_r/value	/jointset/acromial_r/arm_add_r/value	/jointset/acromial_r/arm_rot_r/value	/jointset/elbow_r/elbow_flex_r/value	/jointset/radioulnar_r/pro_sup_r/value	/jointset/radius_hand_r/wrist_flex_r/value	/jointset/radius_hand_r/wrist_dev_r/value	/jointset/acromial_l/arm_flex_l/value	/jointset/acromial_l/arm_add_l/value	/jointset/acromial_l/arm_rot_l/value	/jointset/elbow_l/elbow_flex_l/value	/jointset/radioulnar_l/pro_sup_l/value	/jointset/radius_hand_l/wrist_flex_l/value	/jointset/radius_hand_l/wrist_dev_l/value	
          1.56593403	         -9.63827117	         -6.14610548	         13.73981635	         18.53848360	          0.96381214	          0.30698209	         85.67437836	        -10.99122623	         -0.08332411	        -87.64534924	        -12.40830754	        -23.02102355	         15.66614419	          0.17879111	        -14.94939864	          8.75862312	        -56.52081353	        -30.54985198	        -14.70840175	         -8.39262926	         -9.88220711	          4.05263411	        -10.62619005	        -74.27307411	          0.96389262	         -0.00000529	         76.52311003	         48.99707050	        -14.30741399	          7.83110526	         86.81293119	          0.41206929	         -0.00039155	         94.34726253	         78.98997845	        -14.99224998	          7.85562849	
          1.56658149	         -9.61265119	         -6.14030956	         13.69286345	         18.54582834	          0.96413022	          0.30709076	         85.53300196	        -11.02257345	         -0.17890973	        -86.83907704	        -12.64220655	        -23.04297822	         15.66584837	          0.16220438	        -14.92449265	          8.81663809	        -56.91677263	        -30.59625860	        -14.60736454	         -8.29414700	         -9.97742811	          4.12257834	        -10.61306364	        -74.16870969	          0.96119335	         -0.00135503	         75.99817648	         48.92553532	        -14.41467659	          7.81112180	         86.83805718	          0.32350161	         -0.00102704	         94.04700712	         79.02946570	        -14.99281693	          7.83575522	
          1.56862722	         -9.49627690	         -6.11216166	         13.54757870	         18.56903095	          0.96520450	          0.30744458	         85.00307952	        -11.11293498	         -0.49010795	        -84.28330901	        -13.34567516	        -23.08414956	         15.66528849	          0.08365117	        -14.83767852	          8.99060974	        -58.16521200	        -30.68843139	        -14.35744686	         -8.01478175	        -10.32316273	          4.34449885	        -10.57662584	        -73.80469294	          0.92946910	         -0.01694291	         74.40799255	         48.72440655	        -14.76043579	          7.74825788	         86.86966550	          0.00036804	         -0.00322503	         93.17160863	         79.16861913	        -15.00564054	          7.77276936	
          1.57010985	         -9.37841754	         -6.08248771	         13.44757362	         18.58584631	          0.96604701	          0.30771187	         84.54263307	        -11.17178523	         -0.72290935	        -82.42990368	        -13.81709722	        -23.08618287	         15.66545802	          0.00319587	        -14.76792447	          9.10907226	        -59.06689473	        -30.71208966	        -14.24967322	         -7.85008516	        -10.61541686	          4.50593150	        -10.55766588	        -73.51075947	          0.88324346	         -0.03796583	         73.32349815	         48.60394110	        -15.01563383	          7.70268716	         86.84659418	         -0.27493010	         -0.00333671	         92.60675144	         79.28259169	        -15.02542503	          7.72705670	
          1.57010985	         -9.37841754	         -6.08248771	         13.44757362	         18.58584631	          0.96604701	          0.30771187	         84.54263307	        -11.17178523	         -0.72290935	        -82.42990368	        -13.81709722	        -23.08618287	         15.66545802	          0.00319587	        -14.76792447	          9.10907226	        -59.06689473	        -30.71208966	        -14.24967322	         -7.85008516	        -10.61541686	          4.50593150	        -10.55766588	        -73.51075947	          0.88324346	         -0.03796583	         73.32349815	         48.60394110	        -15.01563383	          7.70268716	         86.84659418	         -0.27493010	         -0.00333671	         92.60675144	         79.28259169	        -15.02542503	          7.72705670	
          1.57075732	         -9.31818454	         -6.06712102	         13.40588208	         18.59319017	          0.96643127	          0.30783165	         84.32215509	        -11.19611366	         -0.82609970	        -81.62194852	        -14.01174405	        -23.07963045	         15.66566681	         -0.03774779	        -14.73589582	          9.15915177	        -59.45970358	        -30.71314406	        -14.22305158	         -7.78993569	        -10.75374872	          4.57652525	        -10.55201642	        -73.37502098	          0.85658346	         -0.04932309	         72.86842233	         48.55832949	        -15.12784458	          7.68272844	         86.82422310	         -0.40599081	         -0.00261028	         92.37842248	         79.33581410	        -15.03682442	          7.70710055	
          1.57280304	         -9.09275041	         -6.01035483	         13.28250861	         18.61640022	          0.96770943	          0.30822007	         83.55036739	        -11.26606453	         -1.15726792	        -79.08115976	        -14.57820034	        -23.03074090	         15.66597087	         -0.18964822	        -14.63112013	          9.31065661	        -60.69600600	        -30.69033031	        -14.21269473	         -7.65429093	        -11.23264909	          4.80115321	        -10.54536886	        -72.91882725	          0.74869803	         -0.10229450	         71.50385550	         48.44192503	        -15.48460720	          7.61965148	         86.70323888	         -0.86338496	         -0.00000475	         91.73028272	         79.51630414	        -15.08403101	          7.64401912	
          1.57428568	         -8.89647885	         -5.96251995	         13.20143128	         18.63323037	          0.96869477	          0.30850942	         82.92252158	        -11.30921184	         -1.40086002	        -77.25643094	        -14.94138003	        -22.97226769	         15.66598277	         -0.31971390	        -14.55361607	          9.41524515	        -61.58728612	        -30.65210161	        -14.25376550	         -7.61013407	        -11.61811868	          4.96636401	        -10.55204193	        -72.56404071	          0.64917658	         -0.16279746	         70.58447756	         48.38354081	        -15.74453431	          7.57395427	         86.56655514	         -1.23598776	         -0.00153266	         91.33013051	         79.65889152	        -15.12878334	          7.59833632	
          1.57428568	         -8.89647885	         -5.96251995	         13.20143128	         18.63323037	          0.96869477	          0.30850942	         82.92252158	        -11.30921184	         -1.40086002	        -77.25643094	        -14.94138003	        -22.97226769	         15.66598277	         -0.31971390	        -14.55361607	          9.41524515	        -61.58728612	        -30.65210161	        -14.25376550	         -7.61013407	        -11.61811868	          4.96636401	        -10.55204193	        -72.56404071	          0.64917658	         -0.16279746	         70.58447756	         48.38354081	        -15.74453431	          7.57395427	         86.56655514	         -1.23598776	         -0.00153266	         91.33013051	         79.65889152	        -15.12878334	          7.59833632	
          1.57493314	         -8.80224554	         -5.94012797	         13.16831884	         18.64058307	          0.96914015	          0.30863743	         82.63106641	        -11.32582511	         -1.50781303	        -76.46530762	        -15.08728624	        -22.94171448	         15.66598676	         -0.38137894	        -14.51978644	          9.45985406	        -61.97524539	        -30.63041516	        -14.27910326	         -7.60548216	        -11.79621113	          5.03934528	        -10.55820095	        -72.40314989	          0.60023704	         -0.19614633	         70.20132977	         48.36479799	        -15.85822746	          7.55399532	         86.49363674	         -1.40954142	         -0.00392111	         91.17372854	         79.72430043	        -15.15107944	          7.57837727	
          1.57697887	         -8.47148584	         -5.86428836	         13.07356635	         18.66382832	          0.97060508	          0.30904755	         81.64485841	        -11.36905239	         -1.84643987	        -73.99385013	        -15.49757173	        -22.83033936	         15.66586519	         -0.59335380	        -14.41421194	          9.59902501	        -63.19647468	        -30.53947573	        -14.35605948	         -7.64731850	        -12.39600017	          5.27408240	        -10.59203693	        -71.87290299	          0.42553889	         -0.33771783	         69.06402618	         48.33224501	        -16.21748082	          7.49091807	         86.20882849	         -2.00119613	         -0.02417308	         90.75284889	         79.94254103	        -15.23238281	          7.51530345	
